<?xml version="1.0" encoding="UTF-8"?> <svg xmlns="http://www.w3.org/2000/svg" width="284.426" height="56.247" viewBox="0 0 284.426 56.247"><defs><style> .cls-1{fill:#0b6aa2}.cls-2{fill:#9db8d6} </style></defs><g id="Grupo_7811" transform="translate(-169.574 -92.854)"><path id="Trazado_1676" d="M363.839 133.818h-5.661v1.163h3.946v3.731a8.326 8.326 0 0 1-4.338 1.111c-3.42 0-5.986-2.3-5.986-6.388 0-4.665 3.352-6.385 5.99-6.385a4.566 4.566 0 0 1 4.172 2.29l1.787-.475a7.19 7.19 0 0 0-6.031-2.955c-3.888 0-7.695 2.123-7.695 7.52 0 4.77 3.05 7.533 7.634 7.533a10.728 10.728 0 0 0 6.182-1.815z" class="cls-1"></path><path id="Trazado_1677" d="M373.9 138.722a4.741 4.741 0 0 1-3.228 1.236c-1.935 0-2.539-.863-2.539-1.826 0-1.666 1.778-2.419 5.767-2.83zm2.073 1.959v-.1c-.374-.355-.436-.628-.436-1.518v-4.631c0-2.668-1.364-3.583-4.128-3.583-2.835 0-4 1.255-4.415 2.548l1.724.22a2.431 2.431 0 0 1 2.644-1.849c1.858 0 2.533.81 2.533 2.347v.374c-5.412.484-7.433 1.5-7.433 3.7 0 1.556 1.1 2.706 3.981 2.706a5.24 5.24 0 0 0 3.486-1.211h.028a1.555 1.555 0 0 0 .335 1z" class="cls-1"></path><path id="Rectángulo_399" d="M0 0H1.638V13.137H0z" class="cls-1" transform="translate(378.815 127.543)"></path><path id="Trazado_1678" d="M384.419 135.273c.134-2.427 1.4-3.482 2.945-3.482 1.474 0 2.6 1.342 2.787 3.482zm7.427.858a5.836 5.836 0 0 0-1.327-4.033 4.221 4.221 0 0 0-3.137-1.249 4.624 4.624 0 0 0-3.3 1.167 5.061 5.061 0 0 0-1.333 3.775 5.274 5.274 0 0 0 1.27 3.9 4.641 4.641 0 0 0 3.39 1.2 5.12 5.12 0 0 0 3.028-.839 4.22 4.22 0 0 0 1.388-1.643l-1.715-.167a2.85 2.85 0 0 1-2.7 1.7c-1.417 0-2.859-.933-2.979-3.821z" class="cls-1"></path><path id="Trazado_1679" d="M398.178 139.819c-1.968 0-3.09-1.586-3.085-3.931.005-2.4 1.117-3.962 3.094-3.962a4.249 4.249 0 0 1 3.055 1.46v4.909a3.939 3.939 0 0 1-3.045 1.524zm3.084-.187l-.02 1.049h1.634v-13.137h-1.634v4.556h-.033a4.957 4.957 0 0 0-3.314-1.25c-2.471 0-4.473 1.752-4.473 5.023 0 2.864 1.456 5.024 4.545 5.024a5.045 5.045 0 0 0 3.242-1.264z" class="cls-1"></path><path id="Trazado_1680" d="M417.943 139.464h-4.411v-13.27H411.8v14.487h6.14z" class="cls-1"></path><path id="Trazado_1681" d="M426.715 138.722a4.727 4.727 0 0 1-3.227 1.236c-1.934 0-2.538-.863-2.538-1.826 0-1.666 1.776-2.419 5.765-2.83zm2.08 1.959v-.1c-.379-.355-.441-.628-.441-1.518v-4.631c0-2.668-1.366-3.583-4.129-3.583-2.835 0-4 1.255-4.415 2.548l1.724.22a2.431 2.431 0 0 1 2.644-1.849c1.863 0 2.537.81 2.537 2.347v.374c-5.416.484-7.437 1.5-7.437 3.7 0 1.556 1.1 2.706 3.979 2.706a5.241 5.241 0 0 0 3.488-1.211h.028a1.537 1.537 0 0 0 .341 1z" class="cls-1"></path><path id="Trazado_1682" d="M433.258 133.386a4.231 4.231 0 0 1 3.051-1.46c1.968 0 3.089 1.561 3.093 3.961 0 2.313-1.13 3.931-3.083 3.931a3.986 3.986 0 0 1-3.061-1.522zm-1.638 7.295h1.629l-.015-1.049h.049a5.083 5.083 0 0 0 3.245 1.264c3.123 0 4.55-2.242 4.55-5.024 0-3.262-2.006-5.024-4.463-5.024a4.859 4.859 0 0 0-3.323 1.273h-.034v-4.577h-1.638z" class="cls-1"></path><path id="Trazado_1683" d="M449.187 132.677a2.325 2.325 0 0 0-.973-1.268 3.941 3.941 0 0 0-2.179-.56 4.071 4.071 0 0 0-2.395.613 2.176 2.176 0 0 0-.952 1.862 2.323 2.323 0 0 0 .575 1.556 4.275 4.275 0 0 0 2.135 1.184 4.107 4.107 0 0 1 2.007.958 1.6 1.6 0 0 1 .431 1.106 1.8 1.8 0 0 1-.435 1.317 2.029 2.029 0 0 1-1.413.512 1.937 1.937 0 0 1-1.935-1.121l-1.533.149a2.805 2.805 0 0 0 1.293 1.451 4.652 4.652 0 0 0 2.217.461 3.838 3.838 0 0 0 2.587-.854 2.668 2.668 0 0 0 .885-2.1 2.408 2.408 0 0 0-.588-1.681 4.9 4.9 0 0 0-2.261-1.23 4.686 4.686 0 0 1-1.92-.9 1.364 1.364 0 0 1-.451-.99 1.3 1.3 0 0 1 .446-1.03 2.393 2.393 0 0 1 1.3-.326 1.721 1.721 0 0 1 1.725 1.035z" class="cls-1"></path><path id="Rectángulo_400" d="M0 0H1.523V2.108H0z" class="cls-1" transform="translate(452.477 138.573)"></path><path id="Trazado_1684" d="M238.828 130.169h3.088c2.711 0 4.148 1.226 4.148 3.146 0 2.111-1.365 2.859-4.195 2.859h-3.041zm0-9.483h2.988c2.112 0 3.309.756 3.309 2.48 0 1.787-1.1 2.663-3.271 2.663h-3.026zm7.552 6.925c3.2-.254 5.2-2.065 5.2-5.3 0-4.573-3.6-5.967-10.3-5.967h-8.98v24.166h10.34c5.963 0 10.1-1.661 10.1-6.763 0-3.4-1.854-5.536-6.36-5.991z" class="cls-1"></path><path id="Trazado_1685" d="M261.839 123.037h-6.2v17.476h6.2zm0-6.709h-6.2v3.285h6.2z" class="cls-1"></path><path id="Trazado_1686" d="M275.158 137.141c-2.041 0-3.927-1.566-3.927-5.316 0-3.716 1.968-5.349 3.927-5.349s3.927 1.576 3.927 5.349c0 3.534-1.844 5.316-3.894 5.316zm10.287-5.354c0-6.255-4.057-9.143-10.287-9.143s-10.287 2.888-10.287 9.143c0 5.239 3.094 9.118 10.287 9.118 6.791 0 10.287-3.6 10.287-9.085z" class="cls-1"></path><path id="Trazado_1687" d="M293.907 131.787c0-2.648.824-4.793 3.928-4.793a5.556 5.556 0 0 1 3.777 1.422v6.68a6.129 6.129 0 0 1-3.82 1.461c-2.616 0-3.885-1.887-3.885-4.741zm7.739-7.61h-.076a8.1 8.1 0 0 0-4.923-1.533c-5.9 0-9.1 3.376-9.1 8.975 0 5.651 2.812 9.287 9.033 9.287a8.248 8.248 0 0 0 4.956-1.481h.076v.523a7.422 7.422 0 0 1-.957 4.176 3.5 3.5 0 0 1-2.748 1.192 4.238 4.238 0 0 1-2.472-.637 3.176 3.176 0 0 1-1.179-1.982l-6.475.469a9.046 9.046 0 0 0 4.01 4.545A12.632 12.632 0 0 0 298 149.1c3.385 0 5.943-.859 7.48-2.425 1.591-1.661 2.328-4.032 2.328-7.59v-16.047h-6.2z" class="cls-1"></path><path id="Trazado_1688" d="M323.925 136.2a9.163 9.163 0 0 1-4.3 1.1c-1.6 0-2.438-.727-2.438-1.815 0-1.57 1.8-2.634 6.743-3.127zm6.835 4.314v-.293c-.536-.262-.638-.956-.638-2.428v-7.949c0-5.762-3.466-7.2-8.8-7.2-5.966 0-8.328 2.438-9.434 4.934l6.331.6a3.218 3.218 0 0 1 2.96-2.135 2.456 2.456 0 0 1 2.734 2.758v.527c-10.177.944-13.089 3.046-13.089 6.505 0 3.145 2.463 5.075 7.548 5.075a11.188 11.188 0 0 0 5.67-1.407h.1a2.205 2.205 0 0 0 .383 1.015z" class="cls-1"></path><path id="Rectángulo_401" d="M0 0H6.203V23.884H0z" class="cls-1" transform="translate(334.812 116.63)"></path><path id="Trazado_1689" d="M217.981 144.313l.874 2.138-43.067-5.916z" class="cls-2"></path><path id="Trazado_1690" d="M226.67 142.086l.984 2.089-43.316-3.654z" class="cls-2"></path><path id="Trazado_1691" d="M171.671 142.645l-2.1-.184 24.643-35.246z" class="cls-2"></path><path id="Trazado_1692" d="M174.462 133.428l-2.083-.293 26.452-33.907z" class="cls-2"></path><path id="Trazado_1693" d="M199.06 94.58l1.2-1.726 18.278 38.929z" class="cls-2"></path><path id="Trazado_1694" d="M205.534 101.377l1.292-1.66 16.215 39.83z" class="cls-2"></path><path id="Trazado_1695" d="M210.538 125.861l-5.257-9.121-.032-.05a.548.548 0 0 0-.489-.256h-4.976V99.228l15.377 26.633z" class="cls-1"></path><path id="Trazado_1696" d="M223.625 140.52h-23.841v-4.1h5a.647.647 0 0 0 .169-.021.535.535 0 0 0 .383-.381l5.148-9.011h5.341z" class="cls-1"></path><path id="Trazado_1697" d="M174.99 140.52h23.841v-4.1h-5a.641.641 0 0 1-.169-.021.535.535 0 0 1-.383-.381l-7.765-13.628-2.724 4.617z" class="cls-1"></path><path id="Trazado_1698" d="M186.094 121.289l2.31 4 4.93-8.553.032-.05a.548.548 0 0 1 .489-.256h4.976V99.228z" class="cls-1"></path><path id="Trazado_1699" d="M192.76 130.679l.784 1.976 5.27-5.4v-7.815l-1.724-1v7.889z" class="cls-1"></path><path id="Trazado_1700" d="M205.855 130.679l-.779 1.976-5.272-5.4v-7.815l1.725-1v7.889z" class="cls-1"></path></g></svg> 