<svg width="229" height="26" viewBox="0 0 229 26" fill="none" xmlns="http://www.w3.org/2000/svg">
<path d="M33.6716 11.26H30.8107C27.0517 11.26 24.0046 8.17118 24.0046 4.36073V1.46074C24.0046 1.13027 23.7384 0.860509 23.4124 0.860509H21.1637C20.8377 0.860509 20.5715 1.13027 20.5715 1.46074V4.36073C20.5715 8.17118 17.5244 11.26 13.7654 11.26H10.9045C10.5785 11.26 10.3124 11.5298 10.3124 11.8602V14.1398C10.3124 14.4702 10.5785 14.74 10.9045 14.74H13.7654C17.5244 14.74 20.5715 17.8288 20.5715 21.6393V24.5393C20.5715 24.8697 20.8377 25.1395 21.1637 25.1395H23.4124C23.7384 25.1395 24.0046 24.8697 24.0046 24.5393V21.6393C24.0046 17.8288 27.0517 14.74 30.8107 14.74H33.6716C33.9976 14.74 34.2637 14.4702 34.2637 14.1398V11.8602C34.2637 11.5298 33.9976 11.26 33.6716 11.26Z" fill="#010506"/>
<path d="M13.12 21.6662H10.8779C10.5509 21.6662 10.2858 21.935 10.2858 22.2665V24.5393C10.2858 24.8708 10.5509 25.1395 10.8779 25.1395H13.12C13.447 25.1395 13.7121 24.8708 13.7121 24.5393V22.2665C13.7121 21.935 13.447 21.6662 13.12 21.6662Z" fill="#010506"/>
<path d="M33.6383 21.6662H31.3962C31.0692 21.6662 30.8041 21.935 30.8041 22.2665V24.5393C30.8041 24.8708 31.0692 25.1395 31.3962 25.1395H33.6383C33.9653 25.1395 34.2304 24.8708 34.2304 24.5393V22.2665C34.2304 21.935 33.9653 21.6662 33.6383 21.6662Z" fill="#010506"/>
<path d="M2.83424 11.26H0.59213C0.265106 11.26 0 11.5287 0 11.8602V14.133C0 14.4645 0.265106 14.7332 0.59213 14.7332H2.83424C3.16126 14.7332 3.42637 14.4645 3.42637 14.133V11.8602C3.42637 11.5287 3.16126 11.26 2.83424 11.26Z" fill="#010506"/>
<path d="M43.8708 11.26H41.6287C41.3017 11.26 41.0366 11.5287 41.0366 11.8602V14.133C41.0366 14.4645 41.3017 14.7332 41.6287 14.7332H43.8708C44.1979 14.7332 44.463 14.4645 44.463 14.133V11.8602C44.463 11.5287 44.1979 11.26 43.8708 11.26Z" fill="#010506"/>
<path d="M13.12 0.873998H10.8779C10.5509 0.873998 10.2858 1.14273 10.2858 1.47423V3.74701C10.2858 4.07851 10.5509 4.34724 10.8779 4.34724H13.12C13.447 4.34724 13.7121 4.07851 13.7121 3.74701V1.47423C13.7121 1.14273 13.447 0.873998 13.12 0.873998Z" fill="#010506"/>
<path d="M33.6383 0.860509H31.3962C31.0692 0.860509 30.8041 1.12924 30.8041 1.46074V3.73352C30.8041 4.06502 31.0692 4.33375 31.3962 4.33375H33.6383C33.9653 4.33375 34.2304 4.06502 34.2304 3.73352V1.46074C34.2304 1.12924 33.9653 0.860509 33.6383 0.860509Z" fill="#010506"/>
<path d="M135.551 8.08351C138.898 8.08351 143.009 9.97862 143.409 14.8614H140.435C139.969 11.7726 137.96 10.6598 135.551 10.6598C131.806 10.6598 129.969 13.4384 129.969 16.8307C129.969 20.223 131.806 23.0353 135.551 23.0353C137.96 23.0353 139.969 21.9158 140.435 18.8337H143.409C143.009 23.7165 138.891 25.6116 135.551 25.6116C130.169 25.6116 127.022 21.7809 127.022 16.8307C127.022 11.8805 130.169 8.08351 135.551 8.08351Z" fill="#010506"/>
<path d="M210.512 16.8307C210.512 11.7119 213.559 8.08351 218.303 8.08351C222.016 8.08351 224.357 9.97861 225.462 12.5953V0.354698H228.409V25.2744H225.462V21.1065C224.324 23.7839 221.949 25.6183 218.303 25.6183C213.553 25.6183 210.512 21.9562 210.512 16.8374V16.8307ZM219.274 23.0353C222.521 23.0353 225.362 20.9649 225.362 16.8307C225.362 12.6965 222.521 10.6598 219.274 10.6598C216.028 10.6598 213.486 12.6291 213.486 16.8307C213.486 21.0323 216.061 23.0353 219.274 23.0353Z" fill="#010506"/>
<path d="M90.2566 11.0037V8.42071H85.0406V3.23445L82.06 4.15166V8.42071H78.3874V11.0037H90.2566Z" fill="#010506"/>
<path d="M85.0406 22.7318V12.5886H82.06V22.9004C82.06 24.5258 82.8317 25.2744 84.4019 25.2744H90.9219V22.6981L85.0339 22.7318H85.0406Z" fill="#010506"/>
<path d="M161.099 11.0037V8.42071H151.273V3.23445L148.292 4.15166V8.42071H144.613V11.0037H161.099Z" fill="#010506"/>
<path d="M151.273 22.7318V12.5886H148.292V22.9004C148.292 24.5258 149.064 25.2744 150.634 25.2744H157.154V22.6981L151.266 22.7318H151.273Z" fill="#010506"/>
<path d="M114.847 23.0353C112.006 23.0353 110.735 21.6797 110.735 18.22V8.42071H107.721V18.5235C107.721 23.069 109.997 25.6116 113.842 25.6116C116.33 25.6116 118.193 24.7146 119.424 23.1837V20.6276C118.406 22.1586 116.836 23.0353 114.847 23.0353Z" fill="#010506"/>
<path d="M123.669 8.42071H120.728V25.2744H123.669V8.42071Z" fill="#010506"/>
<path d="M166.794 23.0353C163.954 23.0353 162.683 21.6797 162.683 18.22V8.42071H159.669V18.5235C159.669 23.069 161.944 25.6116 165.79 25.6116C168.278 25.6116 170.141 24.7146 171.372 23.1837V20.6276C170.354 22.1586 168.784 23.0353 166.794 23.0353Z" fill="#010506"/>
<path d="M175.623 8.42071H172.682V25.2744H175.623V8.42071Z" fill="#010506"/>
<path d="M182.143 12.5886H179.169V25.2744H182.143V12.5886Z" fill="#010506"/>
<path d="M181.511 8.42071C179.941 8.42071 179.169 9.16931 179.169 10.7609V10.997H190.912V8.42071H181.511Z" fill="#010506"/>
<path d="M96.8366 12.5886H93.8626V25.2744H96.8366V12.5886Z" fill="#010506"/>
<path d="M96.2045 8.42071C94.6344 8.42071 93.8626 9.16931 93.8626 10.7609V10.997H105.605V8.42071H96.2045Z" fill="#010506"/>
<path d="M194.625 15.2728C194.857 12.2244 196.933 10.4575 199.674 10.4575C202.648 10.4575 204.691 12.2177 204.89 15.2728H194.458V17.4107H207.804V16.3249C207.804 11.1049 204.591 8.08351 199.674 8.08351C194.758 8.08351 191.717 11.1656 191.717 16.6284C191.717 21.6123 194.458 25.6116 199.881 25.6116C204.997 25.6116 207.206 22.4958 207.871 19.3732H204.93C204.365 21.7135 202.688 23.2039 199.847 23.2039C196.401 23.2039 194.698 20.6951 194.598 17.4039C194.598 17.4039 194.525 16.8577 194.631 15.266L194.625 15.2728Z" fill="#010506"/>
<path d="M71.2952 12.5279L64.7751 10.8688C62.2003 10.1877 61.1957 8.89955 61.1957 7.20677C61.1957 4.76538 63.032 3.57841 66.4783 3.57841C70.5833 3.57841 72.7988 5.19701 73.1248 8.42746H76.2451C75.8858 3.78073 72.5393 1.00214 66.4783 1.00214C61.0626 1.00214 58.1153 3.20748 58.1153 7.34165C58.1153 10.1877 59.6522 12.3593 63.3646 13.344L69.9512 15.0705C72.6923 15.7853 73.8965 17.2084 73.8965 19.0697C73.8965 21.7135 72.0869 23.0353 68.0085 23.0353C62.7924 23.0353 60.0846 20.8637 60.0846 16.2912H57.0109C57.0109 22.2935 60.7898 25.652 67.9486 25.652C74.2359 25.652 76.977 23.1769 76.977 18.9011C76.977 15.7516 75.1074 13.5126 71.2885 12.5279H71.2952Z" fill="#010506"/>
<path d="M107.721 18.5504V8.42746H110.735V18.247C110.735 21.7135 112.006 23.069 114.86 23.069C118.513 23.069 120.755 20.1488 120.755 15.5965V8.42746H123.702V25.3081H120.755V20.6883C119.85 23.7434 117.501 25.6453 113.849 25.6453C109.997 25.6453 107.714 23.096 107.714 18.5437L107.721 18.5504Z" fill="#010506"/>
<path d="M159.569 18.5504V8.42746H162.583V18.247C162.583 21.7135 163.854 23.069 166.708 23.069C170.36 23.069 172.603 20.1488 172.603 15.5965V8.42746H175.55V25.3081H172.603V20.6883C171.698 23.7434 169.349 25.6453 165.697 25.6453C161.844 25.6453 159.562 23.096 159.562 18.5437L159.569 18.5504Z" fill="#010506"/>
</svg>
